Coordinates
version=1
nRows=19
nColumns=36
inDegrees=yes

Units are S.I. units (second, meters, Newtons, ...)
If the header above contains a line with 'inDegrees', this indicates whether rotational values are in degrees (yes) or radians (no).

endheader
time	pelvis_tilt	pelvis_list	pelvis_rotation	pelvis_tx	pelvis_ty	pelvis_tz	hip_flexion_r	hip_adduction_r	hip_rotation_r	knee_angle_r	knee_angle_r_beta	ankle_angle_r	subtalar_angle_r	mtp_angle_r	hip_flexion_l	hip_adduction_l	hip_rotation_l	knee_angle_l	knee_angle_l_beta	ankle_angle_l	subtalar_angle_l	mtp_angle_l	lumbar_extension	lumbar_bending	lumbar_rotation	arm_flex_r	arm_add_r	arm_rot_r	elbow_flex_r	pro_sup_r	arm_flex_l	arm_add_l	arm_rot_l	elbow_flex_l	pro_sup_l
      1.55000000	    -11.43995012	     -8.76222818	      4.03266964	     -0.41828391	      0.60520407	     -0.56036942	     84.60041155	      2.31564121	     -2.74598352	    100.93086622	      1.76157593	     22.00439286	    -24.69069656	     -7.26160181	     87.19409899	     -7.95460057	     18.60869995	    104.22087303	      1.81899738	     32.45421150	      3.70926014	     -7.26160181	    -42.34635547	      4.33298791	     -4.74770911	     53.72749199	    -21.79368840	     14.07565821	     54.51820777	    113.42811193	     89.70505824	    -10.48144295	     26.31675527	     51.21422792	    105.71741004
      1.56000000	    -11.66944126	     -8.91283856	      4.05706682	     -0.41668224	      0.60039143	     -0.56054217	     85.30517975	      2.43461407	     -2.71249915	    101.80261373	      1.77679080	     22.39368038	    -24.75140620	     -7.26654334	     87.97447189	     -7.89221331	     18.87242912	    105.08733342	      1.83411997	     32.82934799	      3.92498881	     -7.26654334	    -42.69907583	      4.66147397	     -4.83205602	     57.33405757	    -22.72173484	     15.61579013	     55.39487575	    113.33415399	     91.84097311	    -11.23961266	     28.06148623	     55.06528827	    106.02949995
      1.57000000	    -11.81808155	     -9.01227763	      4.10033476	     -0.41503320	      0.59676072	     -0.56088325	     85.75469263	      2.43724152	     -2.72709281	    102.45217505	      1.78812778	     22.80733996	    -24.71527192	     -7.27564634	     88.58848773	     -7.86951449	     19.00837421	    105.83265783	      1.84712834	     33.12613613	      4.27171861	     -7.27564634	    -43.00290528	      5.01982961	     -5.13366637	     61.37630864	    -23.32432574	     18.01248112	     54.96159325	    113.02079613	     93.67200511	    -12.35571048	     29.58066271	     59.06712093	    105.95026140
      1.58000000	    -11.91932800	     -9.04301917	      4.13289023	     -0.41327381	      0.59417752	     -0.56089344	     86.04535645	      2.51851497	     -2.65467712	    103.00323970	      1.79774567	     23.15778392	    -24.78891165	     -7.28069203	     88.98593273	     -7.86727569	     19.15807111	    106.36973273	      1.85650206	     33.26895083	      4.48120282	     -7.28069203	    -43.37601732	      5.18231346	     -5.03925428	     64.57011742	    -24.37806764	     19.35898483	     55.67626951	    112.88665878	     95.35950189	    -13.02465567	     30.94162560	     62.78635560	    105.95037849
      1.59000000	    -12.07646867	     -8.96348947	      4.18540364	     -0.41157225	      0.59243180	     -0.56083834	     86.28314101	      2.50208506	     -2.53189208	    103.40611853	      1.80477724	     23.58733273	    -24.68176177	     -7.29220883	     89.23948230	     -7.75962089	     19.22335170	    106.72998473	      1.86278964	     33.45968575	      4.72592479	     -7.29220883	    -43.55011470	      5.34204896	     -5.40751493	     68.29083940	    -24.95696297	     22.04365332	     54.89135684	    112.22960842	     96.74080189	    -14.43734877	     32.21290301	     66.88490777	    105.09434419
      1.60000000	    -12.36311642	     -8.74508036	      4.27659505	     -0.40968069	      0.59158502	     -0.56067202	     86.54291082	      2.39489793	     -2.28638289	    103.69666271	      1.80984819	     23.80903153	    -24.77775151	     -7.29452355	     89.34329182	     -7.54246749	     19.11031932	    106.82656631	      1.86447531	     33.60775101	      4.70075755	     -7.29452355	    -43.56647761	      5.27871467	     -5.15774282	     70.68134548	    -26.22329709	     22.42588257	     55.53880863	    112.13434644	     97.94878041	    -15.04019111	     33.25098862	     70.31104253	    105.25390875
      1.61000000	    -12.66571940	     -8.60433923	      4.37601004	     -0.40786678	      0.59148734	     -0.56035910	     86.72275352	      2.28712971	     -2.15150631	    103.83665932	      1.81229159	     24.17071812	    -24.60308312	     -7.30532303	     89.52032947	     -7.58978589	     18.85730516	    106.82760609	      1.86449346	     33.78425194	      4.95281910	     -7.30532303	    -43.43274420	      5.51533108	     -5.87207950	     74.15554483	    -26.30919581	     25.46227754	     54.64434605	    111.48508887	     98.89817686	    -17.54889436	     34.52027076	     74.83429781	    104.44274667
      1.62000000	    -13.01834605	     -8.49609396	      4.35837540	     -0.40584024	      0.59221747	     -0.55960132	     86.84371663	      2.33772539	     -2.09075464	    103.81067515	      1.81183808	     24.38207812	    -24.63651397	     -7.31981115	     89.73104742	     -8.05551123	     18.41895546	    106.70443677	      1.86234375	     33.92171013	      5.48893549	     -7.31981115	    -43.18932143	      5.56431292	     -5.89863852	     76.61981777	    -27.18110859	     27.34284214	     54.96231907	    110.90063239	     99.58852512	    -19.32387668	     35.64143299	     78.74779955	    103.20207925
      1.63000000	    -13.45710786	     -8.41411305	      4.30010958	     -0.40367581	      0.59357188	     -0.55879864	     86.94684519	      2.45324755	     -2.03666026	    103.61403614	      1.80840608	     24.52378869	    -24.73910992	     -7.32325658	     89.90407748	     -8.44976508	     18.02565177	    106.49727534	      1.85872810	     33.96320400	      5.68521288	     -7.32325658	    -42.80446610	      5.55037653	     -5.58207151	     78.36194805	    -28.51301277	     28.27816648	     56.15139883	    110.93683338	    100.01967876	    -20.78444030	     36.60272204	     82.23591139	    103.25205892
      1.64000000	    -13.85768140	     -8.40914586	      4.24302959	     -0.40150264	      0.59571165	     -0.55836619	     86.89727760	      2.54867005	     -2.05844619	    103.27982253	      1.80257295	     24.61676033	    -24.82567752	     -7.33168035	     89.84661614	     -8.55209550	     17.87363552	    106.17103630	      1.85303415	     33.98192553	      5.45629912	     -7.33168035	    -42.33641744	      5.75758723	     -5.46629697	     80.55144349	    -29.46740720	     30.38992735	     56.43766748	    110.72334003	     99.94750272	    -22.84813655	     37.25181636	     86.08643486	    102.72455663
      1.65000000	    -14.26708636	     -8.30320873	      4.20556170	     -0.39912950	      0.59872337	     -0.55814013	     86.75117045	      2.57649667	     -1.96809014	    102.84153348	      1.79492337	     24.71948804	    -24.85160541	     -7.33389022	     89.61336234	     -8.57432904	     17.61065243	    105.70912497	      1.84497228	     34.03795086	      5.18981850	     -7.33389022	    -41.86235370	      5.80453140	     -5.03472312	     81.69713566	    -30.95140039	     30.91019679	     58.04741831	    110.75283723	     99.62084810	    -24.47048441	     37.82846988	     89.52960265	    102.90002567
      1.66000000	    -14.65857101	     -8.12164089	      4.26040208	     -0.39671289	      0.60265087	     -0.55824337	     86.47165833	      2.44710301	     -1.83637427	    102.28286129	      1.78517270	     24.79259855	    -24.80846090	     -7.33748568	     89.24519945	     -8.50358435	     17.22446980	    105.07687001	      1.83393735	     33.90435928	      4.87189313	     -7.33748568	    -41.34614299	      5.93467582	     -4.80775275	     82.93421938	    -32.54840189	     32.40891693	     59.80572165	    110.74553477	     98.77941596	    -26.38179779	     38.09406370	     93.14540188	    102.92575684
      1.67000000	    -15.04732405	     -7.93862704	      4.30693346	     -0.39412284	      0.60732017	     -0.55819022	     86.08024709	      2.36846020	     -1.68624913	    101.59436219	      1.77315612	     24.88414882	    -24.74202859	     -7.34402441	     88.75449974	     -8.46093402	     16.83018441	    104.31617297	      1.82066068	     33.73333606	      4.45836890	     -7.34402441	    -40.74910154	      6.06946003	     -4.56452725	     84.04699392	    -34.27520637	     34.36439406	     61.54534951	    110.51590629	     97.39639339	    -28.34789772	     38.02774915	     96.69872798	    102.69195452
      1.68000000	    -15.48658960	     -7.76124190	      4.36461957	     -0.39133018	      0.61248952	     -0.55770717	     85.67163022	      2.32273864	     -1.57241114	    100.81755137	      1.75959822	     24.95790384	    -24.77745115	     -7.34594452	     88.19515544	     -8.44701244	     16.44302718	    103.41689403	      1.80496530	     33.79380471	      4.28484701	     -7.34594452	    -40.04887525	      6.06382903	     -4.28970689	     84.12853581	    -35.86279656	     34.69756911	     63.82259075	    110.53728697	     95.82349899	    -30.31345759	     38.17214206	    100.03985100	    102.92456561
      1.69000000	    -15.91025964	     -7.74877371	      4.47567217	     -0.38838709	      0.61807564	     -0.55707388	     85.16049513	      2.26822817	     -1.66936260	     99.92231158	      1.74397333	     25.01648653	    -24.81065437	     -7.34744351	     87.68316606	     -8.53115124	     16.15000262	    102.44564564	      1.78801382	     33.75596524	      4.12675445	     -7.34744351	    -39.25922532	      6.16141749	     -4.00079721	     83.65317703	    -37.32639086	     34.70500041	     66.05484853	    110.52745591	     93.83428132	    -32.27403019	     38.13468474	    103.24511304	    103.16941635
      1.70000000	    -16.33902261	     -7.70940068	      4.63613730	     -0.38532052	      0.62419266	     -0.55649335	     84.58611221	      2.16159787	     -1.74688478	     98.94316810	      1.72688406	     25.03827128	    -24.84658029	     -7.34915486	     87.09108931	     -8.52712216	     15.85602604	    101.36028343	      1.76907068	     33.60684265	      3.95490871	     -7.34915486	    -38.39199232	      6.37081685	     -3.91772958	     82.73347970	    -38.45373673	     34.24408580	     68.78900829	    110.44610380	     91.19635468	    -34.49016907	     37.67951319	    106.24580567	    103.35938958
      1.71000000	    -16.85853815	     -7.55902117	      4.80729841	     -0.38191650	      0.63082676	     -0.55587967	     84.00713595	      2.02519045	     -1.70479827	     97.86453986	      1.70805844	     24.95837530	    -24.92338365	     -7.35332230	     86.36372827	     -8.18580920	     15.69633652	    100.14089651	      1.74778836	     33.23382832	      3.21564685	     -7.35332230	    -37.29284358	      6.49198037	     -4.08375479	     80.89474873	    -39.01468631	     32.65196388	     71.39199929	    109.94961701	     87.64567543	    -36.66445145	     36.31954194	    109.08875759	    103.36868103
      1.72000000	    -17.34334223	     -7.26523074	      4.88519193	     -0.37826210	      0.63805789	     -0.55507584	     83.32331980	      2.00576865	     -1.46950224	     96.70683754	      1.68785272	     25.05383830	    -25.05759234	     -7.35505209	     85.33903320	     -7.68391269	     15.62120844	     98.79951561	      1.72437685	     33.23497087	      2.52280747	     -7.35505209	    -36.27502556	      6.32443015	     -4.26540072	     78.89299866	    -39.95413039	     31.76777765	     74.21670991	    109.84058307	     84.24361387	    -38.99688182	     35.64643932	    111.71838185	    103.56914729
      1.73000000	    -17.91235196	     -7.01180734	      4.95725284	     -0.37429460	      0.64578140	     -0.55443921	     82.63558422	      1.93839570	     -1.28775109	     95.42300979	      1.66544570	     24.89512701	    -25.09164661	     -7.35896605	     84.38997028	     -7.28341096	     15.43958713	     97.34196131	      1.69893773	     32.65991469	      1.36255066	     -7.35896605	    -35.02638177	      6.11415204	     -4.40474159	     75.65490798	    -40.30119802	     28.90201934	     76.87294109	    109.32049493	     79.65001392	    -40.62346327	     33.62087251	    113.80947577	    103.65841826
